<svg width="266" height="60" viewBox="0 0 266 60" fill="none" xmlns="http://www.w3.org/2000/svg">
<path d="M103.455 12.0909V47H95.5455L82.9318 28.6591H82.7273V47H73.25V12.0909H81.2955L93.7045 30.3636H93.9773V12.0909H103.455ZM117.006 47H106.778L118.301 12.0909H131.256L142.778 47H132.551L124.915 21.7045H124.642L117.006 47ZM115.097 33.2273H134.324V40.3182H115.097V33.2273ZM176.345 12.0909V47H168.436L155.822 28.6591H155.618V47H146.141V12.0909H154.186L166.595 30.3636H166.868V12.0909H176.345ZM189.896 47H179.669L191.192 12.0909H204.146L215.669 47H205.442L197.805 21.7045H197.533L189.896 47ZM187.987 33.2273H207.214V40.3182H187.987V33.2273ZM219.031 47V12.0909H228.509V26.2045H228.986L239.486 12.0909H250.531L238.736 27.6364L250.804 47H239.486L231.645 33.9091L228.509 38V47H219.031ZM262.821 12.0909V47H253.344V12.0909H262.821Z" fill="#121542"/>
<path d="M2.5 2.5H57.5V57.5H2.5V2.5Z" stroke="#024F92" stroke-width="5"/>
<path d="M28.4389 12V50H22.5V16.5H15.5V50H10V10H13.6374H24.3962C24.3962 10 28 11 28.4389 12Z" fill="#024F92"/>
<path d="M32.5 50V10H38.1321V23.6998L46.5924 10L52.5 10L44.9446 23L53 49L47.1321 50L41 29.5L38.1321 34.6431V50L32.5 50Z" fill="#024F92"/>
</svg>
